<?xml version="1.0" encoding="UTF-8" standalone="no"?>
<svg
   width="128"
   height="128"
   viewBox="0 0 33.866666 33.866668"
   version="1.1"
   id="svg8"
   inkscape:version="1.1 (c68e22c387, 2021-05-23)"
   sodipodi:docname="iconmonstr-smartphone-16.svg"
   xmlns:inkscape="http://www.inkscape.org/namespaces/inkscape"
   xmlns:sodipodi="http://sodipodi.sourceforge.net/DTD/sodipodi-0.dtd"
   xmlns="http://www.w3.org/2000/svg"
   xmlns:svg="http://www.w3.org/2000/svg"
   xmlns:rdf="http://www.w3.org/1999/02/22-rdf-syntax-ns#"
   xmlns:cc="http://creativecommons.org/ns#"
   xmlns:dc="http://purl.org/dc/elements/1.1/">
  <defs
     id="defs2">
    <inkscape:path-effect
       effect="fillet_chamfer"
       id="path-effect1870"
       is_visible="true"
       lpeversion="1"
       satellites_param="F,0,0,1,0,5.2916667,0,1 @ F,0,0,1,0,5.2916667,0,1 @ F,0,0,1,0,5.2916667,0,1 @ F,0,0,1,0,5.2916667,0,1 @ F,0,0,1,0,5.2916667,0,1 @ F,0,0,1,0,5.2916667,0,1"
       unit="px"
       method="auto"
       mode="F"
       radius="20"
       chamfer_steps="1"
       flexible="false"
       use_knot_distance="true"
       apply_no_radius="true"
       apply_with_radius="true"
       only_selected="false"
       hide_knots="false" />
  </defs>
  <sodipodi:namedview
     id="base"
     pagecolor="#ffffff"
     bordercolor="#666666"
     borderopacity="1.0"
     inkscape:pageopacity="0.0"
     inkscape:pageshadow="2"
     inkscape:zoom="3.959798"
     inkscape:cx="65.659915"
     inkscape:cy="47.477169"
     inkscape:document-units="mm"
     inkscape:current-layer="layer1"
     inkscape:document-rotation="0"
     showgrid="false"
     units="px"
     inkscape:window-width="1920"
     inkscape:window-height="986"
     inkscape:window-x="-11"
     inkscape:window-y="-11"
     inkscape:window-maximized="1"
     inkscape:pagecheckerboard="0" />
  <metadata
     id="metadata5">
    <rdf:RDF>
      <cc:Work
         rdf:about="">
        <dc:format>image/svg+xml</dc:format>
        <dc:type
           rdf:resource="http://purl.org/dc/dcmitype/StillImage" />
        <dc:title />
      </cc:Work>
    </rdf:RDF>
  </metadata>
  <g
     inkscape:groupmode="layer"
     id="layer2"
     inkscape:label="Capa 2">
    <path
       sodipodi:type="star"
       style="fill:#1a73e8;fill-opacity:1;fill-rule:evenodd"
       id="path244"
       inkscape:flatsided="true"
       sodipodi:sides="6"
       sodipodi:cx="29.294424"
       sodipodi:cy="27.02158"
       sodipodi:r1="57.192429"
       sodipodi:r2="49.530094"
       sodipodi:arg1="1.0471976"
       sodipodi:arg2="1.5707963"
       inkscape:rounded="0"
       inkscape:randomized="0"
       transform="matrix(0.28678085,0,0,0.28678085,8.7709875,9.0218911)"
       inkscape:path-effect="#path-effect1870"
       d="m 52.598969,76.551677 -46.609095,-2e-6 A 9.1654356,9.1654356 30.000003 0 1 -1.9476258,71.968956 L -25.252171,31.604295 a 9.1654356,9.1654356 90.000003 0 1 0,-9.165436 L -1.9476214,-17.9258 a 9.1654356,9.1654356 150 0 1 7.9375003,-4.582717 l 46.6090951,2e-6 a 9.1654356,9.1654356 30.000003 0 1 7.9375,4.582718 L 83.84102,22.438865 a 9.1654356,9.1654356 90.000003 0 1 -10e-7,9.165435 L 60.53647,71.96896 a 9.1654356,9.1654356 150 0 1 -7.937501,4.582717 z" />
  </g>
  <g
     inkscape:label="Capa 1"
     inkscape:groupmode="layer"
     id="layer1">
    <g
       style="clip-rule:evenodd;fill:#ffffff;fill-opacity:1;fill-rule:evenodd"
       id="g855"
       transform="matrix(0.67105575,0,0,0.67105575,9.253033,8.5180418)">
      <path
         d="M 22,10 H 21 V 8 H 10 v 13 h 5 v 1.617 c 0,0.524 0.121,1.058 0.502,1.383 H 10.5 C 10.102,24 9.721,23.842 9.439,23.561 9.158,23.279 9,22.898 9,22.5 V 7.5 C 9,7.102 9.158,6.721 9.439,6.439 9.721,6.158 10.102,6 10.5,6 h 10 c 0.398,0 0.779,0.158 1.061,0.439 C 21.842,6.721 22,7.102 22,7.5 Z m 2,2.25 C 24,11.56 23.44,11 22.75,11 h -5.5 C 16.56,11 16,11.56 16,12.25 v 10.5 c 0,0.69 0.56,1.25 1.25,1.25 h 5.5 C 23.44,24 24,23.44 24,22.75 Z M 8.593,24 H 2 L 4.599,21 H 8 v 1.804 C 8,23.383 8.337,23.894 8.593,24 Z M 20,23 c -0.553,0 -1,-0.448 -1,-1 0,-0.552 0.447,-1 1,-1 0.552,0 0.999,0.448 0.999,1 0,0.552 -0.447,1 -0.999,1 z m 3,-3 V 13.976 H 17 V 20 Z M 21,5 H 19 V 2 H 2 v 15 h 6 v 2 H 0 V 0 h 21 z m -0.5,7 h -1 c -0.276,0 -0.5,0.224 -0.5,0.5 0,0.276 0.224,0.5 0.5,0.5 h 1 C 20.775,13 21,12.776 21,12.5 21,12.224 20.775,12 20.5,12 Z"
         id="path844"
         style="fill:#ffffff;fill-opacity:1" />
    </g>
  </g>
</svg>
