<?xml version="1.0" encoding="UTF-8" standalone="no"?>
<svg
   xmlns:dc="http://purl.org/dc/elements/1.1/"
   xmlns:cc="http://creativecommons.org/ns#"
   xmlns:rdf="http://www.w3.org/1999/02/22-rdf-syntax-ns#"
   xmlns:svg="http://www.w3.org/2000/svg"
   xmlns="http://www.w3.org/2000/svg"
   xmlns:sodipodi="http://sodipodi.sourceforge.net/DTD/sodipodi-0.dtd"
   xmlns:inkscape="http://www.inkscape.org/namespaces/inkscape"
   width="128"
   height="128"
   viewBox="0 0 33.866666 33.866668"
   version="1.1"
   id="svg8"
   inkscape:version="1.0.2 (e86c870879, 2021-01-15, custom)"
   sodipodi:docname="iconmonstr-time-19.svg">
  <defs
     id="defs2" />
  <sodipodi:namedview
     id="base"
     pagecolor="#ffffff"
     bordercolor="#666666"
     borderopacity="1.0"
     inkscape:pageopacity="0.0"
     inkscape:pageshadow="2"
     inkscape:zoom="3.959798"
     inkscape:cx="65.586104"
     inkscape:cy="47.42869"
     inkscape:document-units="mm"
     inkscape:current-layer="layer1"
     inkscape:document-rotation="0"
     showgrid="false"
     units="px"
     inkscape:window-width="1920"
     inkscape:window-height="1001"
     inkscape:window-x="-9"
     inkscape:window-y="-9"
     inkscape:window-maximized="1" />
  <metadata
     id="metadata5">
    <rdf:RDF>
      <cc:Work
         rdf:about="">
        <dc:format>image/svg+xml</dc:format>
        <dc:type
           rdf:resource="http://purl.org/dc/dcmitype/StillImage" />
        <dc:title></dc:title>
      </cc:Work>
    </rdf:RDF>
  </metadata>
  <g
     inkscape:label="Capa 1"
     inkscape:groupmode="layer"
     id="layer1">
    <g
       style="clip-rule:evenodd;fill-rule:evenodd;fill:#ffa50f;fill-opacity:1"
       id="g855"
       transform="matrix(1.2445716,0,0,1.2445716,2.3708427,1.6358515)">
      <path
         d="M 22,10 H 21 V 8 H 10 v 13 h 5 v 1.617 c 0,0.524 0.121,1.058 0.502,1.383 H 10.5 C 10.102,24 9.721,23.842 9.439,23.561 9.158,23.279 9,22.898 9,22.5 V 7.5 C 9,7.102 9.158,6.721 9.439,6.439 9.721,6.158 10.102,6 10.5,6 h 10 c 0.398,0 0.779,0.158 1.061,0.439 C 21.842,6.721 22,7.102 22,7.5 Z m 2,2.25 C 24,11.56 23.44,11 22.75,11 h -5.5 C 16.56,11 16,11.56 16,12.25 v 10.5 c 0,0.69 0.56,1.25 1.25,1.25 h 5.5 C 23.44,24 24,23.44 24,22.75 Z M 8.593,24 H 2 L 4.599,21 H 8 v 1.804 C 8,23.383 8.337,23.894 8.593,24 Z M 20,23 c -0.553,0 -1,-0.448 -1,-1 0,-0.552 0.447,-1 1,-1 0.552,0 0.999,0.448 0.999,1 0,0.552 -0.447,1 -0.999,1 z m 3,-3 V 13.976 H 17 V 20 Z M 21,5 H 19 V 2 H 2 v 15 h 6 v 2 H 0 V 0 h 21 z m -0.5,7 h -1 c -0.276,0 -0.5,0.224 -0.5,0.5 0,0.276 0.224,0.5 0.5,0.5 h 1 C 20.775,13 21,12.776 21,12.5 21,12.224 20.775,12 20.5,12 Z"
         id="path844"
         style="fill:#ffa50f;fill-opacity:1" />
    </g>
  </g>
</svg>
