<?xml version="1.0" encoding="UTF-8" standalone="no"?>
<svg
   width="128"
   height="128"
   viewBox="0 0 33.866666 33.866668"
   version="1.1"
   id="svg8"
   sodipodi:docname="iconmonstr-time-19.svg"
   inkscape:version="1.1 (c68e22c387, 2021-05-23)"
   xmlns:inkscape="http://www.inkscape.org/namespaces/inkscape"
   xmlns:sodipodi="http://sodipodi.sourceforge.net/DTD/sodipodi-0.dtd"
   xmlns="http://www.w3.org/2000/svg"
   xmlns:svg="http://www.w3.org/2000/svg"
   xmlns:rdf="http://www.w3.org/1999/02/22-rdf-syntax-ns#"
   xmlns:cc="http://creativecommons.org/ns#"
   xmlns:dc="http://purl.org/dc/elements/1.1/">
  <defs
     id="defs2">
    <inkscape:path-effect
       effect="fillet_chamfer"
       id="path-effect1870"
       is_visible="true"
       lpeversion="1"
       satellites_param="F,0,0,1,0,5.2916667,0,1 @ F,0,0,1,0,5.2916667,0,1 @ F,0,0,1,0,5.2916667,0,1 @ F,0,0,1,0,5.2916667,0,1 @ F,0,0,1,0,5.2916667,0,1 @ F,0,0,1,0,5.2916667,0,1"
       unit="px"
       method="auto"
       mode="F"
       radius="20"
       chamfer_steps="1"
       flexible="false"
       use_knot_distance="true"
       apply_no_radius="true"
       apply_with_radius="true"
       only_selected="false"
       hide_knots="false" />
  </defs>
  <sodipodi:namedview
     id="base"
     pagecolor="#ffffff"
     bordercolor="#666666"
     borderopacity="1.0"
     inkscape:pageopacity="0.0"
     inkscape:pageshadow="2"
     inkscape:zoom="3.959798"
     inkscape:cx="65.659915"
     inkscape:cy="47.477169"
     inkscape:document-units="mm"
     inkscape:current-layer="layer1"
     inkscape:document-rotation="0"
     showgrid="false"
     units="px"
     inkscape:window-width="1920"
     inkscape:window-height="986"
     inkscape:window-x="-11"
     inkscape:window-y="-11"
     inkscape:window-maximized="1"
     inkscape:pagecheckerboard="0" />
  <metadata
     id="metadata5">
    <rdf:RDF>
      <cc:Work
         rdf:about="">
        <dc:format>image/svg+xml</dc:format>
        <dc:type
           rdf:resource="http://purl.org/dc/dcmitype/StillImage" />
        <dc:title />
      </cc:Work>
    </rdf:RDF>
  </metadata>
  <g
     inkscape:groupmode="layer"
     id="layer2"
     inkscape:label="Capa 2">
    <path
       sodipodi:type="star"
       style="fill:#1a73e8;fill-opacity:1;fill-rule:evenodd"
       id="path244"
       inkscape:flatsided="true"
       sodipodi:sides="6"
       sodipodi:cx="29.294424"
       sodipodi:cy="27.02158"
       sodipodi:r1="57.192429"
       sodipodi:r2="49.530094"
       sodipodi:arg1="1.0471976"
       sodipodi:arg2="1.5707963"
       inkscape:rounded="0"
       inkscape:randomized="0"
       transform="matrix(0.28678085,0,0,0.28678085,8.5037177,9.2223433)"
       inkscape:path-effect="#path-effect1870"
       d="m 52.598969,76.551677 -46.609095,-2e-6 A 9.1654356,9.1654356 30.000003 0 1 -1.9476258,71.968956 L -25.252171,31.604295 a 9.1654356,9.1654356 90.000003 0 1 0,-9.165436 L -1.9476214,-17.9258 a 9.1654356,9.1654356 150 0 1 7.9375003,-4.582717 l 46.6090951,2e-6 a 9.1654356,9.1654356 30.000003 0 1 7.9375,4.582718 L 83.84102,22.438865 a 9.1654356,9.1654356 90.000003 0 1 -10e-7,9.165435 L 60.53647,71.96896 a 9.1654356,9.1654356 150 0 1 -7.937501,4.582717 z" />
  </g>
  <g
     inkscape:label="Capa 1"
     inkscape:groupmode="layer"
     id="layer1">
    <path
       d="m 19.14776,17.372452 2.018432,-3.082779 -0.347639,-0.310882 -2.812481,2.37296 c -0.516854,-0.105632 -1.07353,0.05211 -1.450262,0.473207 -0.563574,0.630175 -0.509204,1.598815 0.121752,2.162375 0.630951,0.563586 1.598816,0.509205 2.162387,-0.12184 0.376732,-0.421171 0.470913,-0.991617 0.307817,-1.493156 z M 16.153804,9.2206252 V 7.1577851 h 3.062872 v 2.0628401 c -1.101868,-0.1860584 -1.98474,-0.1822383 -3.062872,0 z m 6.777361,1.5804398 1.077365,-1.0773646 1.082724,1.0827246 -1.011512,1.011513 C 23.72598,11.447329 23.34159,11.108117 22.931165,10.801065 Z M 8.4966367,14.049238 H 14.622374 V 15.58066 H 8.4966367 Z m -1.5314349,3.062868 h 6.1257372 v 1.531441 H 6.9652018 Z m 2.297151,3.062859 h 5.3600212 v 1.531442 H 9.2623528 Z M 25.342408,17.877811 c 0,4.229073 -3.428112,7.657189 -7.657168,7.657189 -2.136347,0 -4.0583,-0.884419 -5.445014,-2.297149 h 2.511551 c 0.871388,0.483163 1.867585,0.765707 2.933463,0.765707 3.377578,0 6.125736,-2.748162 6.125736,-6.125747 0,-3.377567 -2.748158,-6.125723 -6.125736,-6.125723 -1.065878,0 -2.062075,0.282545 -2.933463,0.765715 h -2.511551 c 1.386714,-1.412747 3.308667,-2.297151 5.445014,-2.297151 4.229056,0 7.657168,3.428115 7.657168,7.657159 z"
       id="path833"
       style="fill:#ffffff;fill-opacity:1;stroke-width:0.765721" />
  </g>
</svg>
