<?xml version="1.0" encoding="UTF-8" standalone="no"?>
<svg
   xmlns:dc="http://purl.org/dc/elements/1.1/"
   xmlns:cc="http://creativecommons.org/ns#"
   xmlns:rdf="http://www.w3.org/1999/02/22-rdf-syntax-ns#"
   xmlns:svg="http://www.w3.org/2000/svg"
   xmlns="http://www.w3.org/2000/svg"
   xmlns:sodipodi="http://sodipodi.sourceforge.net/DTD/sodipodi-0.dtd"
   xmlns:inkscape="http://www.inkscape.org/namespaces/inkscape"
   width="128"
   height="128"
   viewBox="0 0 33.866666 33.866668"
   version="1.1"
   id="svg8"
   sodipodi:docname="iconmonstr-product-3.svg"
   inkscape:version="1.0.2 (e86c870879, 2021-01-15, custom)">
  <defs
     id="defs2" />
  <sodipodi:namedview
     id="base"
     pagecolor="#ffffff"
     bordercolor="#666666"
     borderopacity="1.0"
     inkscape:pageopacity="0.0"
     inkscape:pageshadow="2"
     inkscape:zoom="3.959798"
     inkscape:cx="65.586104"
     inkscape:cy="57.530216"
     inkscape:document-units="mm"
     inkscape:current-layer="layer1"
     inkscape:document-rotation="0"
     showgrid="false"
     units="px"
     inkscape:window-width="1920"
     inkscape:window-height="1001"
     inkscape:window-x="-9"
     inkscape:window-y="-9"
     inkscape:window-maximized="1" />
  <metadata
     id="metadata5">
    <rdf:RDF>
      <cc:Work
         rdf:about="">
        <dc:format>image/svg+xml</dc:format>
        <dc:type
           rdf:resource="http://purl.org/dc/dcmitype/StillImage" />
        <dc:title></dc:title>
      </cc:Work>
    </rdf:RDF>
  </metadata>
  <g
     inkscape:label="Capa 1"
     inkscape:groupmode="layer"
     id="layer1">
    <g
       style="clip-rule:evenodd;fill-rule:evenodd;fill:#ffa50f;fill-opacity:1"
       id="g881"
       transform="matrix(1.311389,0,0,1.311389,1.3685817,1.5467624)">
      <path
         d="M 11.5,23 3,18.465 v -3.953 l 5.4,3.122 3.1,-3.406 z m 1,-0.001 V 14.193 L 15.662,17.536 21,14.578 v 3.887 z M 2.161,12.874 0,11.63 3,8.328 0,5.505 8.718,1 11.933,3.385 15.258,1 24,5.561 21.005,8.332 24,11.775 21.758,13.016 V 13.015 L 15.855,16.285 12.507,12.744 19.923,8.782 12.001,4.41 4.078,8.782 11.5,12.719 v 0.024 L 8.203,16.365 3,13.357 2.84,13.265 2.161,12.872 Z"
         id="path870"
         style="fill:#ffa50f;fill-opacity:1" />
    </g>
  </g>
</svg>
